HIERARCHY
ROOT newVegas:Hips
{
	OFFSET 0.000000 96.479958 0.000000
	CHANNELS 6 Xposition Yposition Zposition Xrotation Yrotation Zrotation
	JOINT newVegas:Pelvis
	{
		OFFSET 0.000000 0.000000 0.000000
		CHANNELS 3 Xrotation Yrotation Zrotation
		JOINT newVegas:LeftUpLeg
		{
			OFFSET 18.735201 -5.666702 -4.541200
			CHANNELS 3 Xrotation Yrotation Zrotation
			JOINT newVegas:LeftLeg
			{
				OFFSET -0.021200 -31.938179 0.493100
				CHANNELS 3 Xrotation Yrotation Zrotation
				JOINT newVegas:LeftFoot
				{
					OFFSET 0.021200 -31.938179 -4.336299
					CHANNELS 3 Xrotation Yrotation Zrotation
					JOINT newVegas:LeftToeBase
					{
						OFFSET 0.943001 -26.722000 15.023500
						CHANNELS 3 Xrotation Yrotation Zrotation
						End Site
						{
							OFFSET 0.000000 30.670183 0.000000
						}
					}
				}
				JOINT newVegas:Left_PantLeg
				{
					OFFSET 0.663870 -9.044666 -1.108900
					CHANNELS 3 Xrotation Yrotation Zrotation
					End Site
					{
						OFFSET 1.415995 20.635357 0.000000
					}
				}
			}
		}
		JOINT newVegas:RightUpLeg
		{
			OFFSET -18.735201 -5.666702 -4.541200
			CHANNELS 3 Xrotation Yrotation Zrotation
			JOINT newVegas:RightLeg
			{
				OFFSET 0.018946 -31.938133 0.493100
				CHANNELS 3 Xrotation Yrotation Zrotation
				JOINT newVegas:RightFoot
				{
					OFFSET -0.018946 -31.938126 -4.336299
					CHANNELS 3 Xrotation Yrotation Zrotation
					JOINT newVegas:RightToeBase
					{
						OFFSET -0.943001 -26.722004 15.023500
						CHANNELS 3 Xrotation Yrotation Zrotation
						End Site
						{
							OFFSET 0.000000 30.670187 0.000000
						}
					}
				}
				JOINT newVegas:Right_PantLeg
				{
					OFFSET -0.661674 -9.044716 -1.108900
					CHANNELS 3 Xrotation Yrotation Zrotation
					End Site
					{
						OFFSET -1.415958 20.635269 0.000000
					}
				}
			}
		}
	}
	JOINT newVegas:Spine
	{
		OFFSET 0.000000 10.199997 -0.299500
		CHANNELS 3 Xrotation Yrotation Zrotation
		JOINT newVegas:Spine1
		{
			OFFSET 0.000000 11.900002 -1.516600
			CHANNELS 3 Xrotation Yrotation Zrotation
			JOINT newVegas:Spine2
			{
				OFFSET 0.000000 13.600006 -2.842500
				CHANNELS 3 Xrotation Yrotation Zrotation
				JOINT newVegas:Neck
				{
					OFFSET 0.000000 9.624100 -2.890100
					CHANNELS 3 Xrotation Yrotation Zrotation
					JOINT newVegas:Head
					{
						OFFSET 0.000000 14.068802 -1.351900
						CHANNELS 3 Xrotation Yrotation Zrotation
						JOINT newVegas:Hair_Back
						{
							OFFSET 0.000000 3.231903 -17.524799
							CHANNELS 3 Xrotation Yrotation Zrotation
							End Site
							{
								OFFSET 0.000000 19.849884 0.000000
							}
						}
						JOINT newVegas:Hair_Front
						{
							OFFSET 0.000000 31.260406 4.573800
							CHANNELS 3 Xrotation Yrotation Zrotation
							JOINT newVegas:Hair_Front1
							{
								OFFSET 0.000000 2.284103 11.993300
								CHANNELS 3 Xrotation Yrotation Zrotation
								JOINT newVegas:Hair_Front2
								{
									OFFSET 0.000000 2.284103 11.993300
									CHANNELS 3 Xrotation Yrotation Zrotation
									End Site
									{
										OFFSET 0.000000 12.208862 0.000000
									}
								}
							}
						}
						JOINT newVegas:Jowel
						{
							OFFSET 0.000000 -7.458206 6.864100
							CHANNELS 3 Xrotation Yrotation Zrotation
							End Site
							{
								OFFSET 0.000000 19.849884 0.000000
							}
						}
					}
				}
				JOINT newVegas:LeftShoulder
				{
					OFFSET 15.263000 10.923401 -0.547700
					CHANNELS 3 Xrotation Yrotation Zrotation
					JOINT newVegas:LeftArm
					{
						OFFSET 25.438599 -2.830597 -13.032500
						CHANNELS 3 Xrotation Yrotation Zrotation
						JOINT newVegas:LeftForeArm
						{
							OFFSET 29.960503 0.000000 0.000000
							CHANNELS 3 Xrotation Yrotation Zrotation
							JOINT newVegas:LeftHand
							{
								OFFSET 27.849251 0.000000 0.000000
								CHANNELS 3 Xrotation Yrotation Zrotation
								JOINT newVegas:LeftHandThumb1
								{
									OFFSET 4.487587 -3.305161 6.305391
									CHANNELS 3 Xrotation Yrotation Zrotation
									JOINT newVegas:LeftHandThumb2
									{
										OFFSET 5.480453 -3.164139 3.164143
										CHANNELS 3 Xrotation Yrotation Zrotation
										JOINT newVegas:LeftHandThumb3
										{
											OFFSET 5.159721 -2.978973 2.978967
											CHANNELS 3 Xrotation Yrotation Zrotation
											End Site
											{
												OFFSET 2.494507 5.926697 1.738678
											}
										}
									}
								}
								JOINT newVegas:LeftHandIndex1
								{
									OFFSET 18.578728 -0.527832 5.208049
									CHANNELS 3 Xrotation Yrotation Zrotation
									JOINT newVegas:LeftHandIndex2
									{
										OFFSET 3.192009 0.000000 0.000000
										CHANNELS 3 Xrotation Yrotation Zrotation
										JOINT newVegas:LeftHandIndex3
										{
											OFFSET 3.835129 0.000000 0.000000
											CHANNELS 3 Xrotation Yrotation Zrotation
											End Site
											{
												OFFSET -0.034599 3.816971 0.371180
											}
										}
									}
								}
								JOINT newVegas:LeftHandMiddle1
								{
									OFFSET 18.476105 0.000000 0.000000
									CHANNELS 3 Xrotation Yrotation Zrotation
									JOINT newVegas:LeftHandMiddle2
									{
										OFFSET 3.324875 0.000000 0.000000
										CHANNELS 3 Xrotation Yrotation Zrotation
										JOINT newVegas:LeftHandMiddle3
										{
											OFFSET 4.596550 0.000000 0.000000
											CHANNELS 3 Xrotation Yrotation Zrotation
											End Site
											{
												OFFSET 0.057701 4.578827 0.399218
											}
										}
									}
								}
								JOINT newVegas:LeftHandRing1
								{
									OFFSET 17.732719 0.121887 -4.201567
									CHANNELS 3 Xrotation Yrotation Zrotation
									JOINT newVegas:LeftHandRing2
									{
										OFFSET 2.733170 0.000000 0.000000
										CHANNELS 3 Xrotation Yrotation Zrotation
										JOINT newVegas:LeftHandRing3
										{
											OFFSET 3.178268 0.000000 0.000000
											CHANNELS 3 Xrotation Yrotation Zrotation
											End Site
											{
												OFFSET 0.119102 3.170624 0.185394
											}
										}
									}
								}
								JOINT newVegas:LeftHandPinky1
								{
									OFFSET 15.989624 -0.606689 -7.535461
									CHANNELS 3 Xrotation Yrotation Zrotation
									JOINT newVegas:LeftHandPinky2
									{
										OFFSET 2.538986 0.000000 0.000000
										CHANNELS 3 Xrotation Yrotation Zrotation
										JOINT newVegas:LeftHandPinky3
										{
											OFFSET 2.593102 0.000000 0.000000
											CHANNELS 3 Xrotation Yrotation Zrotation
											End Site
											{
												OFFSET -0.150902 2.584198 0.152708
											}
										}
									}
								}
							}
							JOINT newVegas:Left_Sleeve
							{
								OFFSET 0.267448 -0.649796 0.577675
								CHANNELS 3 Xrotation Yrotation Zrotation
								End Site
								{
									OFFSET 0.000000 15.991241 0.000000
								}
							}
							JOINT newVegas:Left_CapeC
							{
								OFFSET 15.715958 -8.608795 -6.935905
								CHANNELS 3 Xrotation Yrotation Zrotation
								JOINT newVegas:Left_CapeC1
								{
									OFFSET 0.000000 -8.688499 0.000000
									CHANNELS 3 Xrotation Yrotation Zrotation
									End Site
									{
										OFFSET 0.000000 8.688499 0.000000
									}
								}
							}
						}
						JOINT newVegas:Left_CapeB
						{
							OFFSET 26.118385 -8.608795 -7.079235
							CHANNELS 3 Xrotation Yrotation Zrotation
							JOINT newVegas:Left_CapeB1
							{
								OFFSET 0.000000 -8.688499 0.000000
								CHANNELS 3 Xrotation Yrotation Zrotation
								End Site
								{
									OFFSET 0.000000 8.688499 0.000000
								}
							}
						}
						JOINT newVegas:Left_CapeA
						{
							OFFSET 5.115639 -8.608795 -10.395809
							CHANNELS 3 Xrotation Yrotation Zrotation
							JOINT newVegas:Left_CapeA1
							{
								OFFSET 0.000000 -8.688499 0.000000
								CHANNELS 3 Xrotation Yrotation Zrotation
								End Site
								{
									OFFSET 0.000000 8.688499 0.000000
								}
							}
						}
					}
				}
				JOINT newVegas:RightShoulder
				{
					OFFSET -15.263000 10.923401 -0.547700
					CHANNELS 3 Xrotation Yrotation Zrotation
					JOINT newVegas:RightArm
					{
						OFFSET -25.438599 -2.830597 -13.032500
						CHANNELS 3 Xrotation Yrotation Zrotation
						JOINT newVegas:RightForeArm
						{
							OFFSET -29.960503 0.000000 0.000000
							CHANNELS 3 Xrotation Yrotation Zrotation
							JOINT newVegas:RightHand
							{
								OFFSET -27.849251 0.000000 0.000000
								CHANNELS 3 Xrotation Yrotation Zrotation
								JOINT newVegas:RightHandThumb1
								{
									OFFSET -4.487587 -3.305161 6.305391
									CHANNELS 3 Xrotation Yrotation Zrotation
									JOINT newVegas:RightHandThumb2
									{
										OFFSET -5.480453 -3.164139 3.164143
										CHANNELS 3 Xrotation Yrotation Zrotation
										JOINT newVegas:RightHandThumb3
										{
											OFFSET -5.159721 -2.978973 2.978967
											CHANNELS 3 Xrotation Yrotation Zrotation
											End Site
											{
												OFFSET -2.494507 5.926697 1.738678
											}
										}
									}
								}
								JOINT newVegas:RightHandIndex1
								{
									OFFSET -18.578728 -0.527832 5.208049
									CHANNELS 3 Xrotation Yrotation Zrotation
									JOINT newVegas:RightHandIndex2
									{
										OFFSET -3.192009 0.000000 0.000000
										CHANNELS 3 Xrotation Yrotation Zrotation
										JOINT newVegas:RightHandIndex3
										{
											OFFSET -3.835129 0.000000 0.000000
											CHANNELS 3 Xrotation Yrotation Zrotation
											End Site
											{
												OFFSET 0.034599 3.816971 0.371180
											}
										}
									}
								}
								JOINT newVegas:RightHandMiddle1
								{
									OFFSET -18.476105 0.000000 0.000000
									CHANNELS 3 Xrotation Yrotation Zrotation
									JOINT newVegas:RightHandMiddle2
									{
										OFFSET -3.324875 0.000000 0.000000
										CHANNELS 3 Xrotation Yrotation Zrotation
										JOINT newVegas:RightHandMiddle3
										{
											OFFSET -4.596550 0.000000 0.000000
											CHANNELS 3 Xrotation Yrotation Zrotation
											End Site
											{
												OFFSET -0.057701 4.578827 0.399218
											}
										}
									}
								}
								JOINT newVegas:RightHandRing1
								{
									OFFSET -17.732719 0.121887 -4.201567
									CHANNELS 3 Xrotation Yrotation Zrotation
									JOINT newVegas:RightHandRing2
									{
										OFFSET -2.733170 0.000000 0.000000
										CHANNELS 3 Xrotation Yrotation Zrotation
										JOINT newVegas:RightHandRing3
										{
											OFFSET -3.178268 0.000000 0.000000
											CHANNELS 3 Xrotation Yrotation Zrotation
											End Site
											{
												OFFSET -0.119102 3.170624 0.185394
											}
										}
									}
								}
								JOINT newVegas:RightHandPinky1
								{
									OFFSET -15.989624 -0.606689 -7.535461
									CHANNELS 3 Xrotation Yrotation Zrotation
									JOINT newVegas:RightHandPinky2
									{
										OFFSET -2.538986 0.000000 0.000000
										CHANNELS 3 Xrotation Yrotation Zrotation
										JOINT newVegas:RightHandPinky3
										{
											OFFSET -2.593102 0.000000 0.000000
											CHANNELS 3 Xrotation Yrotation Zrotation
											End Site
											{
												OFFSET 0.150902 2.584198 0.152708
											}
										}
									}
								}
							}
							JOINT newVegas:Right_CapeC
							{
								OFFSET -15.715958 -8.608795 -6.935905
								CHANNELS 3 Xrotation Yrotation Zrotation
								JOINT newVegas:Right_CapeC1
								{
									OFFSET 0.000000 -8.688499 0.000000
									CHANNELS 3 Xrotation Yrotation Zrotation
									End Site
									{
										OFFSET 0.000000 8.688499 0.000000
									}
								}
							}
							JOINT newVegas:Right_Sleeve
							{
								OFFSET -0.267448 -0.649994 0.577675
								CHANNELS 3 Xrotation Yrotation Zrotation
								End Site
								{
									OFFSET 0.000000 15.991302 0.000000
								}
							}
						}
						JOINT newVegas:Right_CapeA
						{
							OFFSET -5.115540 -8.608795 -10.395824
							CHANNELS 3 Xrotation Yrotation Zrotation
							JOINT newVegas:Right_CapeA1
							{
								OFFSET 0.000000 -8.688499 0.000000
								CHANNELS 3 Xrotation Yrotation Zrotation
								End Site
								{
									OFFSET 0.000000 8.688499 0.000000
								}
							}
						}
						JOINT newVegas:Right_CapeB
						{
							OFFSET -26.118187 -8.608795 -7.079266
							CHANNELS 3 Xrotation Yrotation Zrotation
							JOINT newVegas:Right_CapeB1
							{
								OFFSET 0.000000 -8.688499 0.000000
								CHANNELS 3 Xrotation Yrotation Zrotation
								End Site
								{
									OFFSET 0.000000 8.688499 0.000000
								}
							}
						}
					}
				}
				JOINT newVegas:Left_Collar
				{
					OFFSET 18.625099 8.655502 8.828100
					CHANNELS 3 Xrotation Yrotation Zrotation
					JOINT newVegas:Left_Collar1
					{
						OFFSET 14.783401 10.540405 -1.259500
						CHANNELS 3 Xrotation Yrotation Zrotation
						End Site
						{
							OFFSET 0.000000 18.199875 0.000000
						}
					}
				}
				JOINT newVegas:Collar_Back
				{
					OFFSET 0.000000 15.630707 -20.132601
					CHANNELS 3 Xrotation Yrotation Zrotation
					End Site
					{
						OFFSET 0.000000 22.523010 0.000000
					}
				}
				JOINT newVegas:Left_Peck
				{
					OFFSET 17.239599 -5.132599 25.482599
					CHANNELS 3 Xrotation Yrotation Zrotation
					End Site
					{
						OFFSET 0.000000 22.523010 0.000000
					}
				}
				JOINT newVegas:Right_Peck
				{
					OFFSET -17.239599 -5.132202 25.482599
					CHANNELS 3 Xrotation Yrotation Zrotation
					End Site
					{
						OFFSET 0.000000 22.523010 0.000000
					}
				}
				JOINT newVegas:Right_Collar
				{
					OFFSET -18.625099 8.655792 8.828100
					CHANNELS 3 Xrotation Yrotation Zrotation
					JOINT newVegas:Right_Collar1
					{
						OFFSET -14.783401 10.539993 -1.259500
						CHANNELS 3 Xrotation Yrotation Zrotation
						End Site
						{
							OFFSET 0.000000 18.199631 0.000000
						}
					}
				}
			}
		}
		JOINT newVegas:Belly
		{
			OFFSET 0.000000 -6.540398 9.014299
			CHANNELS 3 Xrotation Yrotation Zrotation
			End Site
			{
				OFFSET 0.000000 11.566666 0.000000
			}
		}
	}
	JOINT newVegas:ElvisFacialAnim_Joint
	{
		OFFSET 1.000000 -95.330101 -8.825800
		CHANNELS 3 Xrotation Yrotation Zrotation
		End Site
		{
			OFFSET 0.000000 35.315800 0.000000
		}
	}
}
MOTION
Frames: 4
Frame Time: 0.016667
9.653291 94.807121 0.458169 -0.400632 -19.208189 -2.210074 -0.000000 0.000001 -0.000000 -10.874544 7.086365 -2.754143 22.681974 9.687350 2.922704 -14.135217 19.351982 1.823780 -0.000000 -0.000001 -0.000000 0.000001 0.000000 0.000000 -12.927835 -7.130746 -12.971057 15.525232 3.155188 2.552913 -14.025665 -4.011336 7.505991 -0.000001 0.000001 -0.000000 0.000000 0.000002 -0.000000 4.348728 1.231104 -2.470964 0.212745 0.451137 -0.248040 0.209997 0.457549 -0.249456 -0.267654 0.154069 1.295297 -0.267653 0.154070 1.295301 -0.000000 -0.000000 0.000000 -0.267655 0.154075 1.295299 -0.267583 0.154067 1.295299 -0.000000 0.000001 -0.000000 -0.000000 -0.000000 0.000000 2.666471 -4.458575 -11.991964 -11.925376 -18.438338 -60.942629 0.000005 -15.296892 0.000013 21.654172 -9.509534 -12.534864 3.397825 -6.557747 3.595388 15.782399 22.471708 8.580102 0.000001 -0.000002 -0.000003 -1.195635 -0.465176 -28.245547 0.364158 2.035046 -20.288315 0.000001 0.000002 -0.000002 0.355578 4.762382 -38.285997 0.507603 2.387210 -24.004929 0.000000 0.000003 0.000001 6.488013 10.665002 -48.294014 0.477651 2.318865 -23.275652 -0.000001 -0.000000 -0.000001 12.833118 15.275983 -52.520111 0.697258 2.773797 -28.215329 -0.000001 -0.000001 -0.000003 0.000002 0.000001 -0.000001 0.000002 0.000001 -0.000001 0.000001 0.000001 -0.000001 0.000001 -0.000001 0.000001 0.000001 -0.000002 0.000001 0.000001 -0.000001 0.000001 -0.000000 -0.000000 0.000001 2.229752 0.128999 15.927383 5.674424 -0.408657 64.436954 0.000006 15.408092 -0.000001 1.035989 6.325150 -5.049626 -1.352783 9.111905 0.370104 16.874349 -29.512803 -6.239179 0.000001 -0.000003 0.000001 -1.055110 2.974099 11.633312 0.216279 -1.404176 17.511924 0.000001 0.000001 0.000001 -0.609018 -1.094596 18.696390 0.373076 -1.828104 23.066800 -0.000001 0.000001 -0.000001 1.805381 -6.986241 25.613578 0.549370 -2.196229 28.084476 0.000001 -0.000001 0.000003 4.328865 -11.691962 36.199043 0.703962 -2.463942 31.885724 -0.000002 0.000003 0.000000 -0.000000 0.000000 -0.000001 -0.000000 0.000000 -0.000002 -0.000000 0.000000 -0.000001 -0.000000 0.000001 -0.000001 -0.000000 0.000001 -0.000000 -0.000000 0.000001 -0.000001 -0.000000 0.000001 -0.000000 0.000000 0.000001 -0.000001 0.000000 0.000001 -0.000001 0.000000 0.000001 -0.000001 0.000000 0.000001 -0.000001 0.000000 0.000001 -0.000001 0.000000 0.000001 -0.000001 0.000000 0.000001 -0.000001 0.000000 -0.000001 0.000000 -0.000000 0.000001 -0.000000 
9.873977 94.798584 0.558164 -0.322713 -19.508649 -2.313599 0.000000 0.000001 0.000000 -10.914405 7.084998 -2.857708 22.687670 9.694114 2.933784 -14.183072 19.629228 2.003875 -0.000000 0.000001 0.000000 -0.000000 -0.000000 -0.000000 -12.878979 -7.118814 -12.901925 15.255899 3.223777 2.551713 -14.148918 -4.000598 7.331750 -0.000001 0.000001 0.000001 0.000000 0.000001 0.000000 4.286812 0.975919 -2.547276 0.189584 0.383775 -0.265577 0.187299 0.390526 -0.267591 -0.280178 0.172691 1.336893 -0.280177 0.172687 1.336894 0.000000 0.000000 -0.000000 -0.280178 0.172679 1.336894 -0.280178 0.172706 1.336891 -0.000000 -0.000000 -0.000000 0.000000 0.000000 -0.000000 2.653988 -4.597931 -11.892587 -12.075092 -19.153001 -61.241218 0.000008 -15.715090 0.000015 21.497047 -9.669909 -10.948889 3.397829 -6.557748 3.595392 15.782120 22.476872 8.582035 0.000000 -0.000003 -0.000001 -1.165813 -0.588580 -27.380963 0.367659 2.044482 -20.386807 0.000001 -0.000001 -0.000002 0.364670 4.782494 -38.483249 0.512352 2.397841 -24.118655 0.000001 -0.000002 -0.000005 6.537738 10.676684 -48.526886 0.471596 2.304712 -23.125081 -0.000001 -0.000000 -0.000003 12.766433 15.313086 -52.209560 0.688192 2.756842 -28.027504 0.000001 -0.000003 -0.000002 -0.000002 0.000000 -0.000000 -0.000002 0.000000 -0.000000 -0.000003 0.000001 -0.000000 0.000001 -0.000001 -0.000000 0.000001 -0.000002 0.000000 0.000001 -0.000001 -0.000000 0.000000 -0.000000 0.000000 2.263677 -0.037343 16.070484 5.438917 -0.171347 64.671503 -0.000004 15.685821 0.000012 1.013124 5.195175 -3.929804 -1.352785 9.111904 0.370104 16.861978 -29.498341 -6.250187 0.000001 -0.000002 -0.000001 -1.134066 2.859889 12.607727 0.219261 -1.413570 17.633008 0.000000 0.000001 -0.000000 -0.612863 -1.120403 18.937840 0.356229 -1.788057 22.533002 -0.000001 0.000000 0.000002 1.775713 -6.972104 25.217383 0.529215 -2.158060 27.553869 -0.000000 0.000001 -0.000001 4.168394 -11.681614 35.243619 0.685219 -2.433576 31.446912 0.000000 0.000002 -0.000001 0.000000 0.000000 0.000001 -0.000001 0.000000 0.000000 0.000000 0.000000 0.000001 -0.000000 -0.000001 0.000000 0.000000 0.000000 -0.000000 -0.000000 -0.000001 0.000000 0.000000 -0.000000 0.000000 0.000000 -0.000001 -0.000000 0.000000 -0.000001 -0.000000 0.000000 -0.000001 -0.000000 0.000000 -0.000001 -0.000000 0.000000 -0.000001 -0.000000 0.000000 -0.000001 -0.000000 0.000000 -0.000001 -0.000000 -0.000000 0.000002 0.000000 0.000000 0.000001 0.000000 
10.081862 94.789642 0.654670 -0.220615 -19.792565 -2.397180 -0.000000 -0.000001 -0.000000 -10.967357 7.078680 -2.964737 22.671862 9.699710 2.945179 -14.225746 19.902456 2.179448 -0.000000 -0.000000 -0.000000 0.000000 -0.000001 -0.000000 -12.842738 -7.108015 -12.838679 14.996795 3.247931 2.537624 -14.289601 -3.994145 7.179969 -0.000001 -0.000000 0.000001 0.000000 -0.000000 0.000000 4.210714 0.703814 -2.647215 0.165081 0.312362 -0.289361 0.163354 0.319514 -0.292050 -0.293527 0.189541 1.380713 -0.293520 0.189546 1.380715 0.000001 -0.000002 0.000000 -0.293456 0.189542 1.380713 -0.293676 0.189558 1.380712 0.000000 0.000002 -0.000000 0.000001 -0.000002 0.000000 2.633634 -4.716147 -11.762446 -12.145296 -19.959018 -61.514630 -0.000013 -16.226668 -0.000004 21.493166 -9.651167 -9.215257 3.397822 -6.557749 3.595389 15.782084 22.484735 8.583424 0.000000 -0.000001 -0.000001 -1.129460 -0.729816 -26.391106 0.368804 2.047541 -20.418632 0.000002 -0.000000 0.000002 0.367282 4.788573 -38.547020 0.516961 2.408114 -24.228756 -0.000001 0.000001 -0.000003 6.588682 10.690085 -48.752470 0.466758 2.293407 -23.004986 0.000000 0.000001 -0.000001 12.724906 15.349704 -51.963212 0.679195 2.739894 -27.839752 0.000002 0.000000 -0.000004 0.000001 0.000000 0.000000 0.000001 0.000000 0.000000 0.000000 0.000000 0.000000 0.000002 0.000000 -0.000001 0.000002 -0.000001 -0.000001 0.000002 0.000000 -0.000001 -0.000000 0.000001 -0.000000 2.301185 -0.222081 16.229416 5.160329 0.078143 64.897814 -0.000000 15.935555 0.000004 1.068247 3.974132 -2.851386 -1.352783 9.111906 0.370112 16.865252 -29.501745 -6.248136 0.000001 -0.000002 -0.000001 -1.209425 2.733149 13.613623 0.224443 -1.429758 17.841781 -0.000000 -0.000001 0.000000 -0.620056 -1.162469 19.354205 0.341808 -1.752897 22.066080 -0.000001 -0.000002 0.000001 1.768465 -6.976974 25.051986 0.508419 -2.117756 26.996447 -0.000002 -0.000001 0.000006 4.032114 -11.667275 34.463348 0.664836 -2.399957 30.963570 0.000001 0.000003 -0.000001 0.000000 0.000000 0.000000 0.000000 0.000000 0.000000 0.000000 0.000000 0.000000 -0.000000 0.000001 0.000001 -0.000000 0.000000 0.000000 -0.000000 0.000001 0.000001 -0.000000 -0.000000 0.000000 -0.000000 -0.000001 -0.000000 -0.000000 -0.000001 -0.000000 -0.000000 -0.000001 -0.000000 -0.000000 -0.000001 -0.000000 -0.000000 -0.000001 -0.000000 -0.000000 -0.000001 -0.000000 -0.000000 -0.000001 -0.000000 0.000001 0.000000 0.000000 -0.000000 -0.000001 -0.000000 
10.277731 94.781372 0.748097 -0.084317 -20.068143 -2.463865 -0.000000 -0.000001 -0.000000 -11.042823 7.059991 -3.083362 22.641088 9.705624 2.973172 -14.285697 20.188364 2.352246 0.000000 -0.000000 -0.000000 0.000001 -0.000000 -0.000000 -12.827063 -7.095652 -12.769530 14.719695 3.251768 2.522149 -14.409368 -3.986272 7.025995 -0.000001 0.000001 -0.000000 -0.000000 0.000002 0.000000 4.111848 0.426166 -2.769201 0.138035 0.240252 -0.315975 0.136931 0.247833 -0.319407 -0.307648 0.204390 1.426396 -0.307647 0.204397 1.426401 0.000000 0.000002 -0.000000 -0.307506 0.204408 1.426397 -0.307724 0.204389 1.426399 0.000000 0.000002 -0.000000 0.000000 0.000002 -0.000000 2.611131 -4.805601 -11.630853 -12.175095 -20.855182 -61.745265 -0.000001 -16.823728 0.000003 21.773871 -9.467353 -7.469715 3.397822 -6.557750 3.595387 15.782446 22.486827 8.582372 0.000001 -0.000001 -0.000001 -1.094912 -0.883149 -25.362217 0.367655 2.044546 -20.387170 -0.000001 -0.000002 -0.000002 0.363613 4.781228 -38.484066 0.522138 2.419545 -24.351231 0.000001 0.000002 0.000001 6.647710 10.706567 -49.003605 0.463667 2.286109 -22.927594 0.000000 0.000003 -0.000002 12.730820 15.396631 -51.808839 0.670465 2.723323 -27.656730 -0.000001 -0.000003 0.000001 -0.000000 0.000001 0.000001 -0.000000 0.000001 0.000001 -0.000001 0.000001 0.000001 0.000004 -0.000001 0.000001 0.000004 -0.000001 0.000001 0.000004 -0.000001 0.000001 0.000002 -0.000000 0.000001 2.342156 -0.439309 16.405414 4.855272 0.354266 65.099175 -0.000002 16.165734 -0.000006 1.199197 2.678670 -1.823893 -1.352785 9.111904 0.370108 16.871558 -29.508767 -6.243213 0.000001 0.000000 0.000001 -1.296304 2.624674 14.634703 0.231596 -1.451797 18.126313 -0.000001 0.000000 0.000000 -0.630225 -1.217371 19.921743 0.330240 -1.724111 21.684922 -0.000000 -0.000000 0.000002 1.780257 -6.994574 25.111512 0.487754 -2.076725 26.431818 -0.000000 -0.000001 0.000005 3.913103 -11.644077 33.865881 0.643807 -2.364584 30.457692 -0.000001 0.000003 0.000003 0.000002 -0.000000 0.000001 0.000001 -0.000000 -0.000001 0.000002 -0.000001 0.000001 0.000000 -0.000001 0.000000 0.000000 -0.000001 -0.000000 0.000000 -0.000001 0.000000 0.000000 -0.000001 -0.000000 -0.000000 0.000000 0.000001 -0.000000 0.000000 0.000001 -0.000000 0.000000 0.000001 -0.000000 0.000000 0.000001 -0.000000 0.000000 0.000001 -0.000000 0.000000 0.000001 -0.000000 0.000000 0.000001 -0.000000 0.000000 -0.000000 -0.000000 -0.000001 -0.000000 
